<?xml version="1.0" encoding="UTF-8"?><svg id="Calque_1" xmlns="http://www.w3.org/2000/svg" viewBox="0 0 48 48"><defs><style>.cls-1{fill:#dbbb76;}.cls-1,.cls-2,.cls-3,.cls-4,.cls-5,.cls-6,.cls-7,.cls-8,.cls-9,.cls-10,.cls-11,.cls-12,.cls-13,.cls-14,.cls-15{stroke-width:0px;}.cls-2{fill:#d8be6d;}.cls-3{fill:#e9daa8;}.cls-4{fill:#898570;}.cls-5{fill:#c1a964;}.cls-6{fill:#dfcc8d;}.cls-7{fill:#b88f2f;}.cls-8{fill:#c4952e;}.cls-9{fill:#504436;}.cls-10{fill:#0f0e0b;}.cls-11{fill:#724c1e;}.cls-12{fill:#f4eac5;}.cls-13{fill:#a8762b;}.cls-14{fill:#d7ab4e;}.cls-15{fill:#f4f3f2;}</style></defs><path class="cls-2" d="M7.72,29.62c-.18-.29-.37-.59-.55-.88.39-.07.79-.21,1.1.22.04.05.21.05.3.02.39-.14.77-.31,1.16-.47.15-.18.3-.37.44-.55.1-.24.32-.51.27-.72-.1-.43-.35-.83-.53-1.25-.01-.03.07-.11.11-.16.4.41.77.83,1.19,1.21.53.48,1.51.86,2.07.49.52-.35,1.05-.4,1.64-.32.5.24,1,.49,1.5.73.01,0,.07-.02.07-.05.21-.72.91-.48,1.36-.61.62-.17,1.32-.61,1.97,0,.01,0,.03.01.04.02-.01,0-.03-.02-.04-.03,0-.18-.04-.49.02-.51.46-.16.94-.25,1.41-.37.01,0,.03.01.04.02-.01,0-.03-.02-.04-.02-.08-.29-.15-.59-.23-.88.48.15,1.25,1.36,1.18,1.85,0,.07-.05.14-.1.19-.2.21-.41.4-.6.62-.11.13-.54.03-.32.41-.25.12-.52.38-.73.33-.85-.18-1.36.48-2.04.72-.04.01-.05.08-.08.12.05.02.09.05.14.07.07.03.15.07.22.1-.07.04-.14.11-.22.13-.55.12-1.1.22-1.65.34-.05.01-.07.13-.1.19.47.12.63.91,1.3.6.06-.03.2.02.25.08.31.37.55.63,1.16.7.45.05.79.09,1.19-.11.2-.1.45-.13.68-.13.4,0,.47-.05.63-.43.02-.06.13-.08.18-.14.22-.25.42-.52.63-.78-.31-.23,0-.22.11-.29.28-.17.89.29.87-.46,0,0,.07,0,.1-.02.36-.13.77-.2,1.05-.43.12-.1.94-.39.16-.81-.01,0,.05-.21.07-.21.19,0,.38,0,.56.04.4.11.67.08.72-.43.03-.34-.36-.89.5-.92.39-.01.77-.46,1.16-.7.17-.11.41-.3.54-.25.59.24.84-.22,1.2-.5.19-.15.58-.35.62-.31.32.37.42.02.59-.13.14-.13.29-.28.46-.35.22-.09.46-.1.7-.15-.19.14-.39.27-.57.42-.12.1-.21.24-.31.37.12,0,.24,0,.36.01.05,0,.12.07.12.11.03.34-.68,1.1-1.02,1.08-.39-.02-.62.04-.49.55.06.26.12.71-.51.64-.34-.04-.71.25-1.06.4h0c-.17.18-.33.36-.5.55.2.05.39.11.59.14.09.01.19-.03.29-.05-.05.11-.07.24-.15.33-.15.18-.49.45-.46.49.54.78-.21.68-.56.85-.06.03-.11.07-.17.11.38.3-.06.29-.16.4-.11.13-.23.25-.35.37-.08.08-.2.23-.27.21-.53-.12-.71.29-.93.61-.04.06,0,.27.01.27.34.02.8.16.98,0,.42-.39.84-.66,1.42-.69.21-.01.41-.2.61-.31-.03.32-.04.65-.08.97-.01.1-.09.2-.16.29-.14.18-.3.34-.45.51.06-.18.17-.37.16-.55,0-.16-.13-.32-.22-.47-.02-.03-.11-.04-.15-.02-.21.08-.43.13-.6.26-.21.16-.38.38-.57.57.18.06.36.11.55.17.05.02.1.02.16.04-.03.06-.05.14-.09.16-.42.18-.84.34-1.25.53-.14.06-.23.21-.35.31.43.37-.1.36-.21.51-.08.11-.22.19-.33.28.19.04.4.15.55.1.53-.17,1.03-.44,1.56-.57.18-.04.62.27.61.35-.08.38.12.3.33.28.56-.04,1.12-.08,1.68-.1.11,0,.23.08.33.15.02.01,0,.14-.04.19-.06.09-.13.16-.2.24.12.02.25.06.37.07.2.01.41,0,.61,0,.35-.04.71-.07,1.05-.15.12-.03.2-.2.29-.31,0,.13,0,.25,0,.38.11-.04.22-.08.33-.13l.64-.28c.13.02.3.11.4.05.49-.26.96-.56,1.44-.85.07-.05.13-.13.19-.2.24-.29.23-.28.5-.07.04.03.16-.01.23-.05.19-.1.41-.17.56-.32.3-.28.84-.78.78-.88-.33-.52.1-.49.34-.58.24-.09.45-.43.75-.11.28-.4.6-.78.82-1.21.45-.86.86-1.74,1.28-2.61.05-.1.03-.25,0-.37,0-.04-.14-.09-.18-.07-.86.42-.28-.33-.27-.4.05-.4.46-.83.04-1.17-.46-.36-.39-.74-.32-1.19.03-.18-.08-.38-.09-.57-.02-.24-.05-.52.35-.38.42,1.04.88,2.07,1.22,3.14.15.47.03,1.03.09,1.54.06.51.24,1,.3,1.51.08.67.03,1.33-.32,1.94-.14-.08-.2-.7-.44-.06-.08.2-.17.4-.22.61-.05.23.04.52-.08.69-.32.47-.59.88-.57,1.52.03.94-.12,1.89-.26,2.82-.03.2.17.86-.54.55-.07-.03-.31.27-.43.45-.29.44-.5.93-.83,1.33-.34.4-.78.72-1.18,1.07-.13-.02-.26-.05-.39-.07.24-.51.47-1.02.72-1.52.13-.25.35-.46.43-.73.29-1,.44-2.02.1-3.04-.06-.17-.29-.37-.47-.4-.47-.09-.95-.09-1.43-.12-.36-.03-.67.01-.76.45-.02.08-.24.2-.27.17-.37-.31-.57.06-.8.21-.37.23-.71.52-1.04.79-.15.13-.31.27-.41.43-.25.43-.35.99-.97,1.11-.09.02-.15.22-.22.34-.04.08-.06.21-.12.23-.33.15-.68.28-1.02.41-.7.25-1.42.47-2.11.75-.27.11-.45.41-.72.53-.46.2-.97.32-1.44.5-.29.1-.64.43-.82.34-.44-.2-.65.1-.94.25-.11.06-.3.19-.33.17-.33-.32-.33.02-.46.18-.13.15-.33.23-.5.34-.17-.43-.18-.05-.24.05-.22.37-.21.84-.7,1.1-.42.22-.72.66-1.11.96-.1.08-.36.05-.5-.02-.78-.41-.93-.35-1.31.47-.15.32-.16.89-.81.64-.17-.07-.4-.04-.59,0-.88.18-1.74.4-2.62.56-.43.08,0,.22-.06.31-2.52-.8-4.74-2.13-6.8-3.75-.88-.7-1.7-1.47-2.55-2.22-.33-.29-.41-.63-.16-1.02.6-.95.85-2.03,1.08-3.1.03-.15-.16-.34-.18-.52-.02-.18.04-.37.08-.56.14-.7.33-1.39.42-2.1.06-.42-.12-.9-.01-1.3.19-.69.53-1.35.81-2.02.52.46.62,1.1.75,1.72.05.24.03.5.1.73.48,1.59,1.48,2.82,2.71,3.9.26.23.51.48.74.73.57.64,1.09,1.32,1.7,1.91.38.36.58.75.68,1.24.06.28.24.53.31.81.07.31.13.64.1.95-.03.32.41,1.47.71,1.56.1.03.25-.07.37-.12.23-.1.45-.2.67-.31.37-.19.76-.36,1.1-.59.17-.12.23-.38.39-.52.67-.58.75-.71.95-1.63.02-.08.1-.19.17-.2.75-.11.66-.66.68-1.2,0-.2.2-.41.35-.59.08-.1.27-.13.35-.23.23-.29.13-.92.8-.77.05.01.12-.13.2-.18.25-.18.51-.35.76-.53.18-.13.35-.28.54-.41.4-.28.77-.69,1.2-.78.42-.09.66-.19.77-.6.01-.01.04-.03.04-.03,0-.03-.02-.06-.04-.09-.11-.15-.2-.4-.33-.42-.4-.06-.21-.2-.07-.33.3-.27.61-.53.91-.8.15-.13.4-.19-.03-.36-.7-.27-.94.33-1.36.58-.39.08-.78.17-1.18.22-1.28.16-2.57.33-3.85.46-.74.07-1.49.11-2.24.1-.61,0-1.24-.21-1.82-.1-.98.19-1.69-.38-2.49-.69-.35-.14-.64-.44-.96-.67-.33-.29-.67-.58-1-.87-.06-.05-.13-.1-.19-.15-.38-.3-.75-.59-1.13-.89-.35-.45-.7-.89-1.06-1.34-.11-.14-.23-.28-.34-.42-.05.15-.11.3-.16.45ZM21.62,26.67s-.04,0-.07,0c.01,0,.02.02.03.03.01,0,.02-.01.04-.02Z"/><path class="cls-7" d="M36.69,10.62c.51,1.04,1.04,2.06,1.5,3.12.18.41.18.91.26,1.36.14.8.42,1.6.37,2.39-.05.88.17,1.66.42,2.46-.08.16-.17.32-.24.48-.05.11-.07.23-.11.35-.12-.04-.25-.06-.34-.14-.36-.31-.59-.23-.81.21-.1.2-.35.31-.52.48-.34.33-.67.66-.99,1.01-.09.09-.11.24-.16.37-.1-.11-.19-.23-.3-.33-.08-.08-.19-.13-.29-.19-.07-.13-.1-.32-.2-.38-.75-.42-.29-.86-.05-1.3.03-.06-.02-.21-.08-.27-.34-.34-.39-.91-.04-1.08.4-.19.11-.4,0-.47-.37-.26-.49-.53-.26-.95.04-.08-.05-.25-.11-.36-.16-.3-.64-.38-.56-.86.02-.11-.09-.25-.14-.37-.08.1-.14.22-.23.29-.05.05-.16.03-.24.05-.06-.69-.58-.41-.95-.44-.09,0-.17.05-.26.08.07.06.15.12.21.19.11.13.21.27.32.41-.16.02-.35.1-.48.03-.61-.3-1.22-.52-1.91-.46-.05,0-.1-.07-.15-.1.06-.04.12-.07.17-.12.06-.05.12-.12.17-.18-.08-.03-.17-.08-.25-.07-.18.04-.34.13-.52.16-.42.05-.87.16-1.27.09-.65-.13-1.01.04-1.23.66-.08.22-.3.4-.46.59-.09.11-.19.21-.3.31-.51.45-1.02.9-1.53,1.34-.02-.04-.04-.09-.07-.13-.01.04-.02.09-.04.13-.18.05-.5.08-.51.16-.13.84-.88.53-1.27.57-.85.07-1.73-.11-2.59-.19-.09,0-.19,0-.28,0-.05-.34-.1-.69-.16-1.02-.04-.22-.1-.44-.19-.65-.07-.16-.2-.29-.31-.43-.1-.13-.19-.25-.29-.38-.07.11-.15.22-.21.34-.15.3-.27.6-.43.89-.04.07-.18.09-.28.13-.02-.09-.03-.19-.05-.28-.1-.41-.2-.83-.29-1.24-.02-.08-.02-.16-.02-.24.08.03.15.07.23.1.03.01.11,0,.11-.01.2-.63.43-1.26.56-1.9.06-.28-.09-.61-.14-.91-.06.01-.13,0-.17.04-.45.49-.9.99-1.36,1.48-.04.04-.19.03-.19.02-.09-.5-.38-.24-.55-.11-.6.46-1.17.95-1.77,1.41-.11.09-.27.11-.41.16,0-.14-.03-.3.03-.41.25-.46.54-.89.79-1.34.08-.14.07-.33.11-.5.08-.04.15-.08.23-.12,0,0-.02-.05-.03-.08-.07.06-.14.13-.2.19-.2-.02-.39-.03-.59-.05.11-.21.21-.42.32-.63l.37-.42c.12-.09.28-.16.37-.29.32-.45.41-1.1,1.08-1.25.04,0,.05-.12.07-.19.08-.21.12-.44.24-.63.26-.44.7-.71.74-1.35.04-.54.4-1.09.71-1.56.29-.43.15-.92-.15-1.34-.32-.46-.58-.67-1.12-.49-.04.01-.11-.08-.17-.13.11-.19.23-.38.34-.56.52,0,1.04.01,1.57.02.13,0,.25,0,.38,0,.17-.02.33-.06.49-.09-.13-.09-.28-.16-.38-.27-.26-.27-.72-.46-.48-.98.83,1.49,2.33,1.26,3.68,1.4.37.04.75-.06,1.05.31.08.11.35.13.52.09.53-.12,1.01-.09,1.56.03.83.19,1.72.16,2.59.16.24,0,.51-.19.71-.35.27-.22.49-.49.73-.74,0,.19,0,.37.01.56,0,.01-.02.02-.02.03,0-.01.01-.02.02-.04.29-.24.61-.46.87-.73.59-.62,1.36-1.04,1.78-1.82.09-.17.16-.37.3-.5.16-.17.16-.48-.06-.71.12-.68.76-.79,1.24-.97.29-.11.71.13,1.08.22.08.46.21.92.24,1.39.04.56,0,1.13,0,1.69,0,.01-.02.02-.03.03,0-.01.01-.03.02-.04.13.33.87.42.4.99.64.31.28.83.28,1.27,0,.04.09.1.13.1.24,0,.24-.01.2.2-.13.81-.25,1.63-.38,2.44-.04.25-.03.54-.16.73-.12.17-.4.22-.62.33.16.13.31.25.47.38-.05.04-.1.08-.15.11.02.02.06.06.07.06.07-.05.14-.1.2-.16.07.04.18.07.2.13.08.19.13.4.19.6.09-.25.19-.5.28-.74.03-.08.07-.16.11-.24ZM31.24,5.98c.14-.29.29-.59.43-.88.01-.03-.04-.09-.06-.14-.06.03-.16.05-.17.09-.08.31-.14.63-.2.94,0,.01-.01.02-.02.04,0-.01.01-.03.02-.04ZM30.23,7.63c.19-.22.37-.44.56-.67.08-.17.15-.34.23-.51-.18.08-.36.14-.53.24-.11.06-.17.19-.27.27-.61.43-.9,1.26-1.76,1.38.04.07.07.14.11.21.06.19.07.52.17.55.6.17.79.66,1.02,1.14.04.07.12.13.18.19.04-.09.1-.19.11-.28.03-.49.02-.98.05-1.47.02-.35.08-.7.13-1.04h0ZM31.91,7.98c-.02.07-.08.19-.06.2.69.43.07.69-.1,1.03-.17.35-.26.73-.39,1.1-.13.15-.27.3-.4.44-.12.13-.24.26-.36.39.21.02.41.04.62.05.24.02.63-.06.69.05.33.64.55.28.79-.04.2.27.39.61.59,0,.02-.07.16-.18.2-.16.4.14.41-.2.54-.41.13-.2.29-.38.41-.58.37-.59,1.16-.94,1.03-1.8-.07-.47.22-1.02-.27-1.42-.03-.03.04-.16.04-.25,0-.32.02-.64,0-.96,0-.08-.09-.22-.16-.23-.41-.07-.95-.45-1.11-.81-.05-.1-.13-.19-.19-.29-.1.11-.26.21-.27.33-.06.66-.51.98-1.03,1.25-.07.04-.13.14-.15.22-.01.06.05.19.1.2.75.15.16.4.04.6-.15.25-.31.49-.47.74-.08.04-.15.07-.23.11-.05.04-.1.08-.15.12.05.04.11.07.16.11h.05s.05,0,.05,0ZM24.24,14.19v.04s-.02.03-.02.03c-.03-.14-.02-.32-.1-.4-.49-.48-.48-.98-.1-1.51.06-.08.16-.24.14-.27-.39-.43-.72-1-1.21-1.24-.78-.37-2,.09-2.33.9-.28.69-.97,1.41-.35,2.28.05.06-.04.22,0,.3.07.18.16.47.28.49.3.04.61-.03.91-.09.35-.07.69-.19,1.04-.29-.38.28-.76.57-1.15.85-.37,0-.75,0-1.12-.02-.16,0-.35-.11-.48-.06-.2.07-.42.21-.52.38-.06.11.04.35.12.51.27.53.87.42,1.3.65.18.21.33.49.56.6.36.17.77.23,1.16.34,1.43.51,3.06-.16,3.63-1.51-.1-.21-.15-.45-.29-.61-.41-.44-.86-.84-1.3-1.26-.06-.04-.12-.08-.18-.12ZM18.47,13s.07-.07.08-.1c.1-.3.18-.61.29-.9.12-.32.25-.63.39-.94.28-.58.61-1.15.84-1.75.07-.18-.12-.46-.2-.69-.13.11-.3.2-.37.34-.31.61-.53,1.27-.92,1.83-.29.43.16,1.1-.5,1.36.1.24.19.49.3.73.02.04.05.07.09.13ZM35.81,15.32c-.07.05-.14.1-.2.16.1.16.2.33.32.48,0,.01.16-.03.17-.07.06-.28.21-.6.13-.83-.13-.38.42-.84-.16-1.14-.09-.05-.15-.18-.22-.28.16-.1.3-.23.47-.3.09-.04.22,0,.33,0-.14-.19-.27-.39-.42-.56-.02-.03-.21.05-.28.12-.26.24-.48.53-.76.75-.61.47-.59.71.08,1.1.22.13.36.38.54.57ZM35.68,12.77c-.25-.18-.48-.42-.75-.5-.13-.04-.51.29-.5.32.13.28.32.52.5.78.24-.19.48-.39.75-.6ZM35.64,11.44c-.12-.11-.22-.21-.23-.2-.2.15-.39.31-.57.48-.01.01.09.15.14.23.2-.16.41-.32.66-.51Z"/><path class="cls-6" d="M15.23,46.64c.05-.09-.37-.24.06-.31.88-.16,1.75-.38,2.62-.56.19-.04.42-.06.59,0,.65.24.66-.32.81-.64.38-.82.53-.88,1.31-.47.14.07.4.1.5.02.39-.3.69-.74,1.11-.96.49-.26.48-.73.7-1.1.06-.1.07-.48.24-.05.17-.11.37-.19.5-.34.13-.16.13-.51.46-.18.03.03.21-.11.33-.17.29-.15.5-.45.94-.25.18.08.53-.24.82-.34.48-.18.98-.29,1.44-.5.26-.12.45-.42.72-.53.69-.28,1.41-.5,2.11-.75.34-.12.69-.26,1.02-.41.06-.03.07-.16.12-.23.07-.12.13-.32.22-.34.63-.12.72-.67.97-1.11.1-.17.26-.31.41-.43.34-.28.68-.56,1.04-.79.23-.14.43-.52.8-.21.03.02.25-.1.27-.17.1-.44.41-.48.76-.45.48.03.96.04,1.43.12.18.03.41.23.47.4.33,1.02.19,2.04-.1,3.04-.08.26-.3.47-.43.73-.25.5-.48,1.01-.72,1.52.13.02.26.05.39.07.04.42.05.74-.5.92-.44.14-.85.48-1.17.83-.34.38-.57.86-.83,1.31-.06.1-.07.35-.03.36.14.06.45.08.45.06.18-.74.59-.27.93-.21.04,0,.11-.1.16-.16h0c.29.14.59.28.88.43-2.2,1.43-4.56,2.47-7.17,2.8-4.05.52-8.11.62-12.13-.24-.75-.16-1.49-.42-2.23-.64-.08-.03-.17-.05-.25-.08h0Z"/><path class="cls-8" d="M35.5,22.18c.1.06.2.12.29.19.11.1.2.22.3.33.05-.12.08-.27.16-.37.32-.35.65-.68.99-1.01.17-.17.42-.28.52-.48.22-.44.45-.52.81-.21.09.08.23.09.34.14.03-.12.06-.24.11-.35.07-.16.16-.32.24-.48.18.49.4.97.53,1.48.23.9.4,1.82.59,2.73-.41-.14-.38.13-.35.38.02.19.13.39.09.57-.08.46-.14.83.32,1.19.43.34.01.77-.04,1.17,0,.07-.58.82.27.4.04-.02.17.04.18.07.02.12.04.26,0,.37-.41.88-.82,1.76-1.28,2.61-.23.43-.55.81-.82,1.21-.3-.31-.52.02-.75.11-.24.09-.66.07-.34.58.06.09-.49.6-.78.88-.15.14-.37.22-.56.32-.07.03-.19.08-.23.05-.27-.21-.26-.21-.5.07-.06.07-.11.15-.19.2-.47.29-.95.58-1.44.85-.1.05-.26-.03-.4-.05.26-.23.51-.45.77-.67.69-.59,1.51-1.06,1.76-2.02.12-.45.28-.83.75-1.01.08-.03.18-.1.19-.17.09-.37.14-.75.23-1.12.07-.28.08-.48-.3-.43-.08.01-.17,0-.25,0,.03-.08.03-.19.09-.25.09-.11.25-.18.32-.29.22-.37.4-.75.61-1.13.09-.16.22-.3.32-.46.24-.37.58-.72.7-1.13.1-.36-.04-.8-.07-1.2,0-.05-.02-.11-.03-.16-.02.04-.06.08-.07.12-.27,1.14-1,1.86-2.08,2.26-.36.13-.36.12-.09.37.03.03.06.1.05.12-.18.22-.37.43-.55.65-.29.33-.58.67-.88,1-.04.02-.09.04-.13.05.04.02.09.04.13.05-.08.09-.14.21-.24.28-.58.45-1.54.61-1.3,1.71.03.13-.18.33-.14.43.19.41.46.66.85.15.06-.08.2-.1.31-.15-.01.1.01.23-.04.31-.42.76-.86,1.51-1.27,2.28-.12.21-.18.45-.27.68-.11.04-.22.08-.33.13,0-.13,0-.25,0-.38-.1.11-.18.28-.29.31-.34.08-.7.1-1.05.15.39-.5.79-.99,1.17-1.5.16-.22.34-.45.41-.71.05-.2-.06-.44-.09-.66-.17.04-.35.07-.52.11-.1.02-.21.06-.31.1h0c.04-.14.08-.28.12-.42.01-.02.02-.04.04-.06l-.06.03c-.03-.08-.12-.2-.09-.23.39-.45-.1-.25-.23-.31h0c.48-.59.96-1.18,1.44-1.77,0-.01.02-.03.03-.04l-.02.04c-.23.14-.47.28-.7.41-.43.24-.85.48-1.29.69-.08.04-.22-.04-.33-.07.09-.05.2-.09.27-.16.31-.31.91-.68.86-.93-.15-.81.57-1.16.73-1.78,0-.03.12-.07.15-.05.45.24.41-.27.59-.42.12-.09.13-.37.12-.56-.03-.52-.46-1.02-.08-1.55.05-.07.12-.13.18-.2.05.09.1.17.14.26.03.07.05.16.07.23.04-.04.09-.07.11-.11.29-.62.7-1.2.45-1.95-.03-.1-.05-.22-.04-.33,0-.06.06-.18.08-.18.54.12.44-.53.78-.64.09-.22.18-.44.27-.66Z"/><path class="cls-14" d="M7.72,29.62c.05-.15.11-.3.16-.45.11.14.23.28.34.42.35.45.71.89,1.06,1.34.22.34.44.68.66,1.02.14.28.23.62.44.84.35.37.78.68,1.18,1,.48.38.95,1,1.48,1.06.72.09,1,.36,1.13.98,0,0,0,0,0,0-.04.06-.11.15-.1.17.35.42.7.84,1.08,1.24.05.05.3,0,.36-.07.21-.29.35-.28.59-.02.62.67.71,1.52.89,2.35.04.2.19.39.31.56.02.03.2,0,.24-.05.48-.59,1.01-1.15,1.03-1.99,0-.14.25-.28.38-.41,0,0,0,0,0,0-.01.11-.05.22-.04.33,0,.12.05.23.08.35.08-.08.17-.16.25-.24.36-.39-.04-1.14.65-1.38-.21-.48.15-.39.42-.47.19-.05.32-.28.48-.42.09-.08.21-.14.32-.19.34-.14.7-.24,1.01-.42.3-.17.56-.42.83-.64.4-.33.8-.67,1.2-1.01.43-.25.66-.85,1.36-.58.43.17.17.23.03.36-.3.27-.61.53-.91.8-.14.13-.33.27.07.33.13.02.22.27.33.42,0,.04,0,.08,0,.12-.1.4-.35.51-.77.6-.44.09-.81.5-1.2.78-.18.13-.35.28-.54.41-.25.18-.51.35-.76.53-.07.05-.15.19-.2.18-.67-.14-.57.48-.8.77-.08.11-.27.13-.35.23-.14.18-.34.39-.35.59-.02.54.07,1.09-.68,1.2-.07.01-.15.12-.17.2-.2.92-.28,1.05-.95,1.63-.16.14-.22.41-.39.52-.34.23-.73.4-1.1.59-.22.11-.45.21-.67.31-.12.05-.27.15-.37.12-.29-.09-.73-1.24-.71-1.56.03-.31-.03-.64-.1-.95-.07-.28-.25-.53-.31-.81-.1-.49-.3-.88-.68-1.24-.61-.59-1.13-1.27-1.7-1.91-.23-.26-.48-.51-.74-.73-1.23-1.07-2.23-2.3-2.71-3.9-.07-.23-.05-.49-.1-.73-.13-.63-.23-1.27-.75-1.72-.07-.15-.14-.3-.2-.44Z"/><path class="cls-14" d="M17.26,6.31c.06.05.13.14.17.13.53-.18.79.02,1.12.49.29.42.43.91.15,1.34-.32.48-.68,1.03-.71,1.56-.04.63-.49.91-.74,1.35-.11.19-.16.42-.24.63-.02.07-.04.18-.07.19-.67.16-.76.8-1.08,1.25-.09.12-.24.19-.37.29.08-.78.2-1.57.22-2.35.01-.3-.25-.52-.58-.28-.59.44-1.17.92-1.75,1.38-.68.14-1,.59-1.08,1.25-.07,0-.14.01-.21.02-.16-.14-.33-.26-.48-.41-.11-.11-.18-.29-.31-.35-.94-.43-1.97.06-2.25,1.05-.16.58-.83,1.12-1.36,1.12.56-1.4.99-2.86,1.72-4.16.36-.65,1.22-1.06,1.91-1.49.68-.43,1.44-.76,2.16-1.13.87.15,1.44-.37,2.02-.88.33-.26.67-.51,1-.77.18-.07.37-.15.55-.22.07,0,.15,0,.22,0Z"/><path class="cls-8" d="M37.01,44.8c-.29-.15-.59-.29-.88-.44-.02,0-.03-.01-.05-.02.01,0,.03.02.04.03-.05.06-.12.17-.16.16-.34-.06-.76-.53-.93.21,0,.02-.31,0-.45-.06-.03-.01-.03-.26.03-.36.26-.45.49-.93.83-1.31.32-.35.73-.69,1.17-.83.55-.17.55-.5.5-.92.4-.35.84-.67,1.18-1.07.33-.4.55-.89.83-1.33.12-.18.36-.48.43-.45.7.31.51-.35.54-.55.14-.93.29-1.88.26-2.82-.02-.64.25-1.05.57-1.52.11-.17.03-.46.08-.69.04-.21.14-.41.22-.61.24-.64.3-.01.44.06.26,2.03.59,4.05.74,6.09.08,1.1-.03,2.2-.99,3.11-1.35,1.28-2.78,2.42-4.41,3.32Z"/><path class="cls-3" d="M10.01,25.82c-.04.05-.12.13-.11.16.18.42.42.81.53,1.25.05.21-.17.48-.27.72-.23.07-.47.14-.7.22.09.11.17.22.26.33-.39.16-.77.32-1.16.47-.09.03-.26.04-.3-.02-.3-.43-.71-.29-1.1-.22-.36-1.22-.71-2.45-1.07-3.67.1-.07.19-.15.29-.22.02-.02.05-.05.07-.07l-.05-.02s-.01.07-.02.1c-.11,0-.21,0-.32,0-.05-.63-.1-1.25-.14-1.88.12-.11.23-.22.35-.33.07-.04.15-.07.22-.11.29-.08.58-.17.87-.25-.01-.03-.03-.07-.03-.07-.28.1-.57.21-.85.31-.07.04-.15.08-.22.11-.15,0-.29,0-.44.01.07-.41.14-.83.22-1.24.8,0,1.61,0,2.41,0,0,.19.02.38.03.57-.25.06-.5.12-.75.18.23-.02.46-.05.7-.07.02,0,.04,0,.06,0,0,0,.02,0,.02,0,.03.19.06.37.09.56-.04.03-.08.07-.12.1-.05.02-.09.03-.14.05,0,.01.03.04.03.04.04-.02.08-.05.13-.07.03,0,.07,0,.1,0,.3.36.6.72.91,1.09.22.3.45.59.67.89l-.17,1.1ZM7.17,24.06s.02-.03.02-.04c0,.02-.01.03-.02.05,0,.01-.02.03-.03.04,0-.01.02-.03.02-.04ZM7.39,25.73s.01-.03.02-.05c0,.01-.02.03-.03.04-.04.04-.07.07-.11.11-.02.03-.05.05-.07.08.02.01.04.02.05.03,0-.04.01-.07.02-.11.04-.04.07-.07.11-.11ZM7.61,25.4s.07-.07.11-.11c0-.02.01-.04.02-.05,0,.01-.02.03-.03.04-.04.04-.07.08-.11.11,0,.02-.01.03-.02.05,0-.01.02-.03.03-.04ZM6.95,23.62s.07-.07.11-.11c.07-.04.15-.08.22-.11.04-.04.07-.07.11-.11.08-.04.15-.07.23-.11,0-.02.01-.04.02-.06-.01.01-.02.03-.03.04-.07.04-.15.08-.22.12-.04.04-.07.07-.11.11-.07.04-.15.08-.22.11-.04.04-.07.07-.11.11,0,.02-.01.03-.02.05.01-.01.02-.03.03-.04ZM8.73,24.29l.15-.11s-.04-.04-.06-.06c-.04.05-.07.1-.11.15-.01.01-.03.02-.04.03,0,0,.02.02.02.02.01-.01.02-.03.03-.04ZM6.44,23.98l.02-.04h-.04s.01.04.01.04ZM8.12,24.87s.01-.03.02-.04c-.01,0-.03-.02-.04-.01,0,0-.01.03-.02.04.01,0,.03,0,.04.01Z"/><path class="cls-3" d="M7.67,14.95c.53,0,1.2-.54,1.36-1.12.28-.99,1.31-1.48,2.25-1.05.13.06.2.24.31.35.15.15.32.27.48.41-.1.22-.21.45-.31.67-.09.08-.23.14-.26.23-.07.24.07.74-.45.29-.04.06-.11.11-.12.18-.05.46-.04.94-.16,1.38-.16.6.13.87.6,1.05.48.19.74-.14.9-.5.25-.53.66-.74,1.2-.79-.32.34-.64.69-.97,1.03-.48.49-.97.97-1.45,1.46-.24.13-.49.27-.73.4-.06.06-.12.12-.18.17,0,0-.01.04-.01.04h-.05c-.38.23-.77.45-1.15.67-.16-.05-.31-.1-.47-.15.15-.16.26-.38.45-.48.3-.17.66-.23.95-.42.26-.17.62-.43.65-.68.07-.58.06-1.21-.09-1.77-.23-.86.26-1.58.28-2.38,0-.27-.04-.54-.07-.81-.18.06-.38.1-.55.19-.34.17-.66.33-.66.83,0,.19-.31.37-.47.56-.15.18-.32.35-.42.55-.29.58-.42,1.32-.86,1.73-.44.41-.2.84-.37,1.23-.11.26-.04.6-.05.91.03.04.07.08.1.13,0,0,0,0,0,0,.09.03.17.07.26.1h.05c.08.05.15.09.23.13.08.04.15.07.23.11.08.03.15.06.23.09,0,0,0,0,0,0,.11.12.22.23.33.35-.04.14-.09.29-.13.43-.83-.04-1.65-.08-2.48-.11.1-.26.21-.52.31-.78.17,0,.34,0,.51,0,.11.04.22.08.33.11.11.04.22.07.34.11.07.04.15.07.22.11.11.04.22.08.33.12.11.06.23.12.34.18,0-.03.02-.08.01-.09-.11-.04-.22-.08-.34-.11-.11-.04-.22-.07-.33-.11-.07-.04-.15-.07-.22-.11-.11-.04-.23-.07-.34-.11-.11-.04-.22-.07-.33-.11-.16-.07-.33-.14-.49-.22.4-1.48.81-2.96,1.21-4.44Z"/><path class="cls-11" d="M35.46,4.43c0-.56.04-1.13,0-1.69-.03-.47-.16-.93-.24-1.39.24.14.55.22.7.42.98,1.28.95,2.85,1.18,4.33.21,1.36-.03,2.7-.43,4-.05.16.01.35.02.53-.04.08-.08.16-.11.24-.1.25-.19.5-.28.74-.06-.2-.11-.41-.19-.6-.03-.06-.13-.09-.2-.13-.04,0-.08,0-.12-.01-.16-.13-.31-.25-.47-.38.21-.11.5-.16.62-.33.13-.19.12-.48.16-.73.13-.81.25-1.63.38-2.44.03-.21.04-.21-.2-.2-.05,0-.13-.06-.13-.1,0-.44.36-.97-.28-1.27.47-.57-.27-.66-.4-.99h0Z"/><path class="cls-14" d="M14.36,7.06c.18-1.68.36-3.36.54-5.05.04-.36.04-.74.1-1.09.18-1.02.52-1.15,1.37-.58-.2.24-.54.47-.58.74-.06.37.17.78.16,1.17-.01.98.21,2-.52,2.87-.14.17-.04.54-.08.82-.03.21-.06.43-.16.6-.1.18-.27.35-.45.47-.09.07-.25.04-.39.05Z"/><path class="cls-7" d="M14.36,7.06c.13-.01.29.02.39-.05.17-.13.34-.29.45-.47.1-.18.14-.4.16-.6.04-.27-.07-.64.08-.82.73-.87.51-1.89.52-2.87,0-.39-.22-.8-.16-1.17.04-.27.38-.49.58-.74.09,0,.24-.05.27-.02.1.13.15.29.22.43-.16.23-.32.45-.48.68.07.29.06.66.23.86.3.34.26.54-.06.81-.28.23-.42.49-.13.85.21.26.37.58.5.88.11.26.16.54.24.82-.18.04-.36.08-.53.11-.59.13-1.25,1.02-1.14,1.55-.58.5-1.16,1.03-2.02.88.3-.37.6-.75.89-1.12Z"/><path class="cls-13" d="M16.38,1.43c.16-.23.32-.45.48-.68,1.23.93,1.66,2.37,2.33,3.65-.23.52.22.71.48.98.11.11.25.18.38.27-.16.03-.33.07-.49.09-.13.02-.25,0-.38,0-.4-.49-1.18-.57-1.34-1.35-.1-.48-.32-.96-.59-1.38-.33-.52-.19-1.28-.87-1.6Z"/><path class="cls-14" d="M30.02,5.87c0-.19,0-.37-.01-.56.24-.35.45-.74.74-1.04.7-.74,1.44-1.45,2.16-2.17.22.23.23.54.06.71-.13.14-.2.33-.3.5-.42.78-1.2,1.2-1.78,1.82-.26.27-.58.49-.87.73h0Z"/><path class="cls-3" d="M6.04,21.19c.03-.19.06-.38.08-.57.79,0,1.59.02,2.38.03,0,.14,0,.28-.01.41-.82.04-1.63.09-2.45.13Z"/><path class="cls-1" d="M6.04,21.19c.82-.04,1.63-.09,2.45-.13-.01.11-.02.22-.03.33-.8,0-1.61,0-2.41,0,0-.07,0-.13,0-.2Z"/><path class="cls-5" d="M8.51,20.65c-.79,0-1.59-.02-2.38-.03,0-.07,0-.15,0-.22.83.04,1.65.08,2.48.11-.03.04-.06.09-.09.13Z"/><path class="cls-1" d="M6.28,22.63c-.12.11-.23.22-.35.33-.03-.11-.07-.22-.1-.33.15,0,.29,0,.44-.01h.01Z"/><path class="cls-1" d="M6.46,19.4c.16.07.33.14.49.22,0,0-.01.01-.01.01-.17,0-.34,0-.51,0,.01-.07.02-.15.04-.22Z"/><path class="cls-5" d="M6.39,24.84c-.1.07-.19.15-.29.22,0-.07-.02-.15-.02-.22.11,0,.21,0,.32,0h0Z"/><path class="cls-2" d="M15.23,46.64c.08.03.17.05.25.08-.08-.03-.17-.05-.25-.08Z"/><path class="cls-6" d="M32.04,32.51c-.04.14-.08.29-.13.43,0,.01-.02.02-.02.04,0-.01.01-.03.02-.04.1-.03.2-.07.31-.1.17-.04.35-.07.52-.11.04.22.15.47.09.66-.07.25-.25.49-.41.71-.38.51-.78,1-1.17,1.5-.2,0-.41,0-.61,0-.13,0-.25-.04-.37-.07.07-.08.15-.16.2-.24.03-.05.06-.18.04-.19-.1-.07-.22-.15-.33-.15-.56.02-1.12.06-1.68.1-.21.02-.41.1-.33-.28.02-.08-.43-.39-.61-.35-.54.13-1.03.4-1.56.57-.16.05-.37-.06-.55-.1.11-.09.25-.16.33-.28.11-.15.64-.13.21-.51.12-.11.21-.25.35-.31.41-.19.84-.35,1.25-.53.05-.02.06-.11.09-.16-.05-.01-.1-.02-.16-.04-.18-.05-.36-.11-.55-.17.19-.19.36-.41.57-.57.17-.13.4-.18.6-.26.04-.02.13,0,.15.02.09.15.21.31.22.47,0,.18-.1.37-.16.55.15-.17.31-.33.45-.51.07-.08.14-.19.16-.29.04-.32.06-.64.08-.97-.2.11-.4.3-.61.31-.59.03-1,.3-1.42.69-.18.17-.65.02-.98,0-.01,0-.05-.21-.01-.27.22-.32.4-.73.93-.61.07.02.18-.13.27-.21.12-.12.24-.24.35-.37.1-.11.54-.1.16-.4.06-.04.11-.08.17-.11.35-.17,1.1-.06.56-.85-.03-.04.31-.31.46-.49.07-.09.1-.22.15-.33-.1.02-.2.06-.29.05-.2-.03-.39-.09-.59-.14.17-.18.33-.37.5-.55,0,.03.01.07.02.1.02,0,.03-.02.05-.03-.02-.02-.05-.05-.07-.07.36-.14.73-.43,1.06-.4.63.07.58-.38.51-.64-.13-.51.1-.57.49-.55.33.02,1.05-.74,1.02-1.08,0-.04-.07-.1-.12-.11-.12-.02-.24,0-.36-.01.1-.12.19-.26.31-.37.18-.15.38-.28.57-.42-.23.05-.48.06-.7.15-.17.07-.32.22-.46.35-.17.15-.27.5-.59.13-.04-.05-.43.16-.62.31-.36.28-.61.73-1.2.5-.13-.05-.37.14-.54.25-.39.24-.77.69-1.16.7-.85.03-.46.57-.5.92-.05.52-.32.54-.72.43-.18-.05-.37-.04-.56-.04-.03,0-.08.2-.07.21.79.41-.04.71-.16.81-.28.23-.69.3-1.05.43-.03.01-.1.02-.1.02.02.74-.59.29-.87.46-.12.07-.42.06-.11.29-.21.26-.42.52-.63.78-.05.06-.16.08-.18.14-.16.38-.24.42-.63.43-.23,0-.48.03-.68.13-.4.2-.74.16-1.19.11-.6-.07-.85-.33-1.16-.7-.05-.06-.19-.11-.25-.08-.67.31-.84-.48-1.3-.6.03-.07.06-.18.1-.19.55-.12,1.1-.23,1.65-.34.08-.02.15-.08.22-.13-.07-.03-.15-.07-.22-.1-.05-.02-.1-.05-.14-.07.03-.04.05-.11.08-.12.68-.24,1.18-.9,2.04-.72.21.05.49-.21.73-.33-.22-.39.2-.28.32-.41.19-.22.41-.41.6-.62.05-.05.09-.12.1-.19.07-.5-.7-1.71-1.18-1.85-.14,0-.28-.02-.42-.03,0-.14,0-.28-.01-.42.04-.02.09-.04.13-.05-.04-.02-.09-.04-.13-.06-.07-.04-.15-.07-.22-.11h0c-.34-.26-.21-.52,0-.77.27-.11.56.46.82-.02.56.09,1.16.07,1.67.29.57.24,1.33.07,1.7.75,0,.01.15-.04.23-.07.1-.04.26-.13.28-.11.42.54.58.06.82-.19.09-.09.21-.2.32-.2.69-.01,1.05-.98,1.87-.64.02,0,.08-.11.13-.16.13-.11.26-.26.41-.31.69-.23,1.38-.52,2.09-.62.34-.05.7-.04,1.06-.1.43-.06.88.04,1.32.06.72.03,1.44.06,2.16.09-.34.12-.24.76-.78.64-.01,0-.08.11-.08.18,0,.11,0,.22.04.33.25.74-.16,1.33-.45,1.95-.02.05-.07.08-.11.11-.02-.08-.04-.16-.07-.23-.04-.09-.09-.17-.14-.26-.06.07-.13.13-.18.2-.39.54.05,1.04.08,1.55,0,.19,0,.47-.12.56-.18.14-.14.66-.59.42-.03-.02-.15.02-.15.05-.15.62-.87.97-.73,1.78.05.25-.55.62-.86.93-.07.07-.18.11-.27.16.11.02.25.1.33.07.44-.21.86-.46,1.29-.69.24-.13.47-.27.7-.41h0c-.48.59-.96,1.18-1.44,1.78-.03,0-.07.01-.1.02.01.02.02.03.03.05.02-.03.04-.05.07-.08.13.06.62-.14.23.31-.02.03.06.15.09.23l.03.03ZM22.4,24.35c-.06.07-.15.17-.14.17.16.18.31.39.51.51.05.03.27-.22.41-.34-.25-.11-.5-.22-.78-.34Z"/><path class="cls-13" d="M14.15,35.82c-.13-.62-.41-.89-1.13-.98-.53-.06-1-.68-1.48-1.06-.41-.32-.83-.63-1.18-1-.21-.22-.3-.55-.44-.84.16-.04.32-.09.48-.13.06.05.13.1.19.15.33.29.67.58,1,.87.32.23.61.53.96.67.8.31,1.5.88,2.49.69.58-.11,1.21.1,1.82.1.75,0,1.5-.03,2.24-.1,1.29-.13,2.57-.29,3.85-.46.4-.05.78-.15,1.18-.22-.4.34-.8.68-1.2,1.01-.27.22-.53.47-.83.64-.31.18-.67.28-1.01.42-.11.05-.22.11-.32.19-.17.14-.3.37-.48.42-.27.08-.63-.01-.42.47-.69.24-.29.99-.65,1.38-.08.09-.17.16-.25.24-.03-.12-.08-.23-.08-.35,0-.11.02-.22.04-.33,0-.01.01-.03.02-.04,0,.01-.01.03-.02.04-.13.14-.38.27-.38.41-.03.84-.55,1.4-1.03,1.99-.04.05-.22.08-.24.05-.12-.18-.26-.36-.31-.56-.18-.83-.27-1.68-.89-2.35-.24-.26-.38-.27-.59.02-.06.08-.31.12-.36.07-.38-.4-.73-.82-1.08-1.24-.01-.02.07-.11.1-.17.07.04.15.07.22.11.01,0,.02.02.03.03-.01,0-.03-.01-.04-.02-.07-.04-.15-.07-.22-.11Z"/><path class="cls-13" d="M32.92,35.4c.09-.23.15-.47.27-.68.42-.76.86-1.52,1.27-2.28.05-.08.03-.21.04-.31-.11.05-.25.07-.31.15-.39.51-.65.25-.85-.15-.05-.1.17-.3.14-.43-.24-1.1.72-1.25,1.3-1.71.09-.07.16-.18.24-.28h0s.09-.04.13-.05c-.04-.02-.09-.04-.13-.06h0c.29-.33.59-.66.88-1,.19-.21.37-.43.55-.65.01-.02-.02-.09-.05-.12-.27-.25-.27-.24.09-.37,1.08-.39,1.81-1.11,2.08-2.26.01-.04.05-.08.07-.12.01.05.03.11.03.16.04.4.18.84.07,1.2-.12.41-.45.76-.7,1.13-.1.15-.23.29-.32.46-.21.37-.39.76-.61,1.13-.07.12-.23.18-.32.29-.05.06-.06.16-.09.25.08,0,.17,0,.25,0,.39-.06.37.15.3.43-.09.37-.14.75-.23,1.12-.02.07-.12.14-.19.17-.47.18-.63.57-.75,1.01-.25.96-1.08,1.43-1.76,2.02-.26.22-.51.45-.77.67-.21.09-.43.18-.64.28Z"/><path class="cls-5" d="M20.61,25.48c.14,0,.28.02.42.03.08.29.15.59.23.88h0c-.47.12-.95.22-1.41.37-.06.02-.02.33-.02.51h0c-.65-.61-1.35-.17-1.97,0-.45.12-1.15-.11-1.36.61,0,.02-.06.05-.07.05-.5-.24-1-.49-1.5-.73,0,0,.02-.03.02-.03.45.06.9.16,1.35.17.18,0,.36-.19.54-.29,1.24-.29,2.55-.32,3.71-.91.13-.07.25-.17.37-.26-.16-.03-.33-.11-.49-.09-.39.06-.77.17-1.16.26.22-.22.44-.44.66-.65h.01c.22.02.45.05.67.08Z"/><path class="cls-5" d="M10.01,25.82c.06-.37.11-.74.17-1.1.11,0,.22,0,.33,0,0,.04,0,.08,0,.12-.24.44-.22.86.22,1.15.31.21.65.46,1,.54.61.15,1.09.66,1.84.45.41-.11.91.11,1.37.18,0,0-.02.03-.02.03-.58-.08-1.12-.02-1.64.32-.55.37-1.54,0-2.07-.49-.42-.38-.8-.81-1.19-1.21Z"/><path class="cls-7" d="M10.4,31.81c-.16.04-.32.09-.48.13-.22-.34-.44-.68-.66-1.02.38.3.75.59,1.13.89Z"/><path class="cls-7" d="M11.6,32.83c-.33-.29-.67-.58-1-.87.33.29.67.58,1,.87Z"/><path class="cls-6" d="M9.72,28.5c-.09-.11-.17-.22-.26-.33.23-.07.47-.14.7-.22-.15.18-.3.37-.44.55Z"/><path class="cls-5" d="M21.62,26.67s-.02.02-.04.02c-.01,0-.02-.02-.03-.03.02,0,.04,0,.07,0Z"/><path class="cls-5" d="M21.26,26.39s.03.02.04.02c-.01,0-.03-.01-.04-.02,0,0,0,0,0,0Z"/><path class="cls-5" d="M19.82,27.28s.03.02.04.03c-.01,0-.03-.01-.04-.02,0,0,0,0,0,0Z"/><path class="cls-6" d="M25.02,34.94s0-.08,0-.12c.01.03.03.06.04.09,0,0-.03.02-.04.03Z"/><path class="cls-12" d="M35.23,22.84c-.72-.03-1.44-.06-2.16-.09-.44-.02-.89-.12-1.32-.06-.36.05-.72.05-1.06.1-.71.1-1.4.39-2.09.62-.15.05-.28.2-.41.31-.05.05-.11.17-.13.16-.81-.34-1.17.63-1.87.64-.11,0-.23.11-.32.2-.23.24-.4.73-.82.19-.02-.02-.18.07-.28.11-.08.03-.22.08-.23.07-.37-.68-1.14-.51-1.7-.75-.51-.21-1.11-.2-1.67-.29-.12-.04-.23-.09-.35-.13-.04-.1-.08-.2-.11-.31-.06-.2-.11-.4-.16-.6.18.06.35.12.53.17.1.03.21,0,.31.04.27.1.52.28.8.32.37.04.75-.02,1.13-.04-.05-.06-.08-.14-.15-.17-.51-.24-1.04-.46-1.55-.71-.1-.05-.16-.19-.24-.29.11-.02.22-.07.33-.07.39,0,.77.03,1.16.04.07,0,.14-.03.21-.04-.08-.02-.16-.05-.24-.06-.79-.05-1.58-.09-2.37-.14.12-.18.24-.35.36-.53.25.03.51.08.76.1.2.01.4-.02.6-.03-.18-.02-.37-.04-.55-.08-.2-.03-.4-.06-.59-.13-.1-.04-.15-.17-.23-.26.09-.05.17-.14.26-.15.6-.08,1.2-.15,1.8-.23.07,0,.14-.03.21-.05-.08-.02-.16-.07-.23-.06-.75.06-1.49.13-2.24.2-.01-.36-.03-.73-.04-1.09.02-.08.05-.16.07-.24.87.08,1.74.26,2.59.19.39-.03,1.14.27,1.27-.57.01-.08.33-.11.51-.16h0s.08,0,.12,0h0c.51-.44,1.02-.88,1.53-1.33.11-.09.21-.2.3-.31.16-.19.38-.36.46-.59.22-.62.58-.78,1.23-.66.4.08.85-.04,1.27-.09.18-.02.34-.12.52-.16.07-.01.16.04.25.07-.06.06-.11.12-.17.18-.05.05-.11.08-.17.12.05.04.11.11.15.1.69-.06,1.3.16,1.91.46.12.06.32-.02.48-.03-.11-.14-.21-.28-.32-.41-.06-.07-.14-.13-.21-.19.09-.03.18-.08.26-.08.37.03.89-.25.95.44.08-.01.19,0,.24-.05.09-.08.16-.19.23-.29.05.12.16.26.14.37-.08.48.4.56.56.86.06.11.16.28.11.36-.23.42-.11.69.26.95.1.07.39.28,0,.47-.35.16-.29.74.04,1.08.06.06.11.21.08.27-.23.45-.69.89.05,1.3.11.06.14.25.2.38-.09.22-.18.44-.27.66ZM29.79,17.29c-.34.02-.68.03-1.01.08-.07.01-.17.22-.15.27.04.09.23.2.29.17.31-.15.59-.34.89-.52,0-.02.01-.03.02-.05,0,.01-.02.02-.03.04ZM33.49,16.73s-.05.04-.07.06c0,0,.02.04.03.04.03,0,.06-.02.08-.04-.01-.02-.03-.04-.04-.06Z"/><path class="cls-1" d="M11.07,18.56c.48-.49.97-.97,1.45-1.46.33-.34.65-.68.97-1.03.04-.08.08-.15.11-.23l.76-.55c.03-.05.06-.1.09-.15,0-.03.02-.05.04-.06.09-.16.18-.31.27-.47v-.03c.21.02.41.03.6.05h.01c-.03.18-.03.37-.11.51-.25.46-.54.89-.79,1.34-.06.11-.02.27-.03.41.14-.05.3-.07.41-.16.6-.46,1.17-.96,1.77-1.41.17-.13.46-.39.55.11,0,0,.16.02.19-.02.46-.49.9-.99,1.36-1.48.03-.04.11-.03.17-.04.05.31.2.63.14.91-.13.65-.36,1.27-.56,1.9,0,.02-.08.02-.11.01-.08-.02-.15-.06-.23-.1,0,.08,0,.16.02.24.1.41.2.83.29,1.24.02.09.04.19.05.28.1-.04.24-.06.28-.13.16-.29.28-.59.43-.89.06-.12.14-.22.21-.34.1.13.19.25.29.38.11.14.24.27.31.43.09.2.15.43.19.65.07.34.11.68.16,1.03-.11.11-.23.23-.34.34h0c-.11.04-.22.07-.33.11h0c-.11.04-.22.07-.33.11,0,0,0,0,0,0-.32.03-.65.07-.97.1-.27-.16-.56-.3-.8-.5-.42-.33-1.17-.27-1.46.15-.21,0-.43.02-.64.03-.52-.32-1.04-.63-1.56-.95-.91-.53-1.89-.47-2.87-.34Z"/><path class="cls-14" d="M22.5,14.44c-.34.1-.69.21-1.04.29-.3.06-.62.13-.91.09-.11-.01-.21-.31-.28-.49-.03-.09.05-.24,0-.3-.63-.87.07-1.58.35-2.28.32-.81,1.55-1.27,2.33-.9.49.23.82.8,1.21,1.24.02.03-.08.18-.14.27-.39.53-.39,1.02.1,1.51.08.08.07.26.1.4-.17-.05-.34-.1-.51-.15-.56-.31-1.01-.19-1.21.31h0Z"/><path class="cls-10" d="M23.71,14.12c.17.05.34.1.51.15,0,0,.04-.03.04-.03,0,0-.01-.04-.01-.04.06.04.12.08.18.12.44.42.89.82,1.3,1.26.15.16.2.4.29.61-.4.23-.84.4-1.18.7-.53.46-1.09.62-1.76.41-.4-.5-.54-1.07-.27-1.65.08-.17.39-.23.59-.34.03-.01.08.02.13.04,0-.03,0-.09-.01-.1-.22-.12-.45-.34-.67-.34-.4,0-1.16.86-1.09,1.33.06.41.4.79.62,1.18,0,.09.01.18.02.28-.39-.11-.8-.16-1.16-.34-.23-.11-.38-.39-.56-.6-.17-.52.09-.86.46-1.17.09-.08.16-.2.23-.3.38-.28.76-.57,1.15-.85,0,0,0,0,0,0,.4-.1.81-.21,1.21-.31Z"/><path class="cls-11" d="M32.69,11.19c-.25.32-.46.68-.79.04-.05-.11-.45-.03-.69-.05-.21-.01-.41-.03-.62-.05.12-.13.24-.26.36-.39.14-.15.27-.29.4-.44.32-.27.64-.53.95-.8.04-.03.07-.14.04-.18-.33-.6.19-.63.51-.79.09-.04.19-.07.29-.1-.09-.04-.17-.09-.26-.13-.33-.11-.66-.22-.99-.33,0,0-.05,0-.05,0,0,0-.05,0-.05,0,0-.08,0-.15-.01-.23.08-.04.15-.07.23-.11.4-.24.67-.72,1.28-.53.34.11.74.03,1.11.06.12.01.28.09.32.18.09.22.09.47.18.69.21.55-.36.72-.53,1.08-.37.84-.82,1.64-1.7,2.07Z"/><path class="cls-13" d="M32.69,11.19c.88-.44,1.32-1.23,1.7-2.07.16-.37.74-.53.53-1.08-.08-.22-.09-.47-.18-.69-.04-.09-.21-.17-.32-.18-.37-.03-.77.04-1.11-.06-.61-.19-.89.29-1.28.53.16-.25.32-.49.47-.74.12-.2.7-.45-.04-.6-.05-.01-.11-.14-.1-.2.01-.08.08-.19.15-.22.52-.27.97-.59,1.03-1.25.01-.12.18-.22.27-.33.07.1.15.19.19.29.16.36.7.74,1.11.81.07.01.15.15.16.23.02.32,0,.64,0,.96,0,.08-.07.22-.04.25.49.4.2.94.27,1.42.13.86-.66,1.22-1.03,1.8-.13.2-.28.38-.41.58-.13.2-.14.55-.54.41-.05-.02-.18.09-.2.16-.2.61-.4.27-.59,0Z"/><path class="cls-10" d="M14.5,15.07s-.04.03-.04.06c-.04.01-.08.02-.13.04-.35.08-.69.16-1.04.24-.2-.48-.49-.94-.56-1.43-.05-.37.18-.77-.46-.45h.01c.08-.66.4-1.12,1.08-1.26,1.09.19,1.73.81,1.73,1.67-.11.21-.21.42-.32.63,0,0-.01.03-.01.03-.1.12-.19.24-.29.35-.02.04-.04.08-.06.12l.04.03.04-.03Z"/><path class="cls-11" d="M16.38,1.43c.68.32.54,1.09.87,1.6.27.42.49.9.59,1.38.16.78.94.85,1.34,1.35-.52,0-1.04-.01-1.57-.02-.15-.03-.29-.07-.44-.1-.08-.27-.13-.56-.24-.82-.14-.31-.29-.62-.5-.88-.29-.36-.15-.62.13-.85.32-.26.36-.46.06-.81-.18-.2-.16-.57-.23-.86Z"/><path class="cls-13" d="M15.1,13.94c0-.86-.64-1.47-1.73-1.67.58-.46,1.15-.94,1.75-1.38.33-.25.59-.03.58.28-.03.79-.14,1.57-.22,2.35-.12.14-.25.28-.37.42Z"/><path class="cls-13" d="M18.47,13c-.04-.05-.08-.09-.09-.13-.1-.24-.2-.49-.3-.73.66-.26.21-.93.5-1.36.38-.56.6-1.23.92-1.83.07-.14.24-.22.37-.34.07.23.27.51.2.69-.23.6-.56,1.16-.84,1.75-.15.31-.27.62-.39.94-.11.3-.19.6-.29.9-.01.03-.04.06-.08.1Z"/><path class="cls-13" d="M35.81,15.32c-.18-.19-.32-.45-.54-.57-.67-.39-.69-.63-.08-1.1.28-.21.5-.5.76-.75.07-.07.25-.15.28-.12.16.17.29.37.42.56-.11,0-.24-.05-.33,0-.17.07-.32.2-.47.3.07.1.12.23.22.28.58.3.03.76.16,1.14.08.24-.06.56-.13.83,0,.04-.16.08-.17.07-.11-.15-.21-.32-.32-.48.07-.05.14-.1.2-.16Z"/><path class="cls-13" d="M21.35,15.29c-.08.1-.14.22-.23.3-.37.31-.63.65-.46,1.17-.43-.23-1.03-.12-1.3-.65-.08-.16-.19-.4-.12-.51.1-.17.32-.31.52-.38.13-.05.32.06.48.06.37.02.75.02,1.12.02Z"/><path class="cls-13" d="M30.23,7.63c-.04.35-.1.69-.13,1.04-.03.49-.03.98-.05,1.47,0,.1-.07.19-.11.28-.06-.06-.14-.12-.18-.19-.23-.47-.42-.97-1.02-1.14-.1-.03-.12-.36-.17-.55.17.07.4.1.48.22.3.45.27.07.39-.11.24-.36.52-.69.78-1.03Z"/><path class="cls-9" d="M23.08,17.29c.67.21,1.23.05,1.76-.41.34-.29.78-.47,1.18-.7-.57,1.34-2.2,2.02-3.63,1.51,0-.09-.01-.18-.02-.28.24-.04.47-.08.71-.12Z"/><path class="cls-11" d="M30.23,7.63c-.26.34-.54.68-.78,1.03-.12.18-.09.56-.39.11-.08-.13-.32-.15-.48-.22-.04-.07-.07-.14-.11-.21.86-.11,1.15-.94,1.76-1.38.1-.07.17-.2.27-.27.16-.1.35-.16.53-.24-.08.17-.15.34-.23.51-.19.22-.37.44-.56.67h0Z"/><path class="cls-13" d="M17.16,5.64c.15.03.29.07.44.1-.11.19-.23.38-.34.56-.07,0-.15,0-.22,0-.3-.21-.47-.11-.55.22-.33.26-.67.51-1,.77-.11-.53.55-1.42,1.14-1.55.18-.04.36-.08.53-.11Z"/><path class="cls-13" d="M31.91,7.98c.33.11.66.21.99.33.09.03.17.08.26.13-.1.03-.2.06-.29.1-.33.16-.85.19-.51.79.02.04,0,.14-.04.18-.31.27-.63.54-.95.8.13-.37.22-.75.39-1.1.17-.34.8-.61.1-1.03-.01,0,.04-.13.06-.2Z"/><path class="cls-13" d="M35.68,12.77c-.26.21-.51.41-.75.6-.17-.25-.37-.5-.5-.78-.01-.03.37-.36.5-.32.27.09.5.32.75.5Z"/><path class="cls-13" d="M35.64,11.44c-.25.19-.46.35-.66.51-.05-.08-.15-.22-.14-.23.18-.17.37-.33.57-.48.01,0,.11.09.23.2Z"/><path class="cls-13" d="M31.24,5.98c.06-.31.12-.63.2-.94.01-.04.11-.06.17-.09.02.05.07.11.06.14-.14.3-.28.59-.43.88,0,0,0,0,0,0Z"/><path class="cls-13" d="M30.23,7.63c.19-.22.37-.44.56-.67-.19.22-.37.44-.56.67Z"/><path class="cls-5" d="M20.04,19.85c.11-.11.23-.23.34-.34.09,0,.19,0,.28,0-.02.08-.05.16-.07.24-.19.04-.37.07-.56.11Z"/><path class="cls-1" d="M15.37,14.62c.07-.06.14-.13.2-.19.01.03.04.08.03.08-.07.04-.15.08-.23.12,0,0-.01-.01-.01-.01Z"/><path class="cls-13" d="M35.78,10.86s.08,0,.12.01c-.07.05-.13.11-.2.16,0,0-.05-.04-.07-.06.05-.04.1-.08.15-.11Z"/><path class="cls-13" d="M31.78,7.75c0,.08,0,.15.01.23-.05-.04-.11-.07-.16-.11.05-.04.1-.08.15-.12Z"/><path class="cls-12" d="M25.03,18.96s.02-.09.04-.13c.02.04.04.09.07.13,0,0,0,0,0,0-.04,0-.08,0-.12,0h0Z"/><path class="cls-14" d="M24.42,14.31c-.06-.04-.12-.08-.18-.12.06.04.12.08.18.12Z"/><path class="cls-13" d="M31.24,5.98s-.01.03-.02.04c0-.01.01-.02.02-.04,0,0,0,0,0,0Z"/><path class="cls-14" d="M30.02,5.86s-.01.02-.02.04c0-.01.02-.02.02-.03,0,0,0,0,0,0Z"/><path class="cls-11" d="M35.46,4.42s-.01.03-.02.04c0-.01.02-.02.03-.03,0,0,0,0,0,0Z"/><path class="cls-13" d="M35.02,29.72s-.09-.04-.13-.05c.04-.02.09-.04.13-.05,0,0,0,0,0,0,0,.04,0,.08,0,.11h0Z"/><path class="cls-6" d="M33.13,30.16l.02-.04s-.02.03-.03.04c0,0,0,0,0,0Z"/><path class="cls-6" d="M32.01,32.48l.06-.03s-.02.04-.04.06c0,0-.03-.03-.03-.03Z"/><path class="cls-9" d="M13.3,15.41c.35-.08.69-.16,1.04-.24.01.04.02.08.03.12-.25.18-.5.37-.76.55-.63.19-1.22.19-1.55-.48-.17-.35-.2-.75-.3-1.13.1-.22.21-.45.31-.67.07,0,.14-.01.21-.02,0,0-.01,0-.01,0-.04.2-.09.39-.12.59-.11.83.32,1.31,1.14,1.29Z"/><path class="cls-7" d="M16.49,6.53c.08-.33.26-.43.55-.22-.18.07-.37.15-.55.22Z"/><path class="cls-6" d="M36.12,44.37s-.03-.02-.04-.03c.02,0,.03.01.05.02,0,0,0,0,0,0Z"/><path class="cls-4" d="M10.52,24.72c-.11,0-.22,0-.33,0-.22-.3-.45-.59-.67-.89-.03-.12-.02-.28-.1-.36-.41-.4-.29-.77.03-1.14.05-.06.05-.17.08-.25.14-.19.28-.38.42-.57.26.41.47.85.77,1.23.68.84,1.39.92,2.25.31.56-.39,1.15-.76,1.73-1.13.05.12.17.27.13.35-.22.47.1.57.43.68-.29.04-.58.06-.87.12-.12.02-.34.1-.34.14.02.21.09.42.15.62.04.13.07.27.13.39.07.14.15.32.28.37.37.15.76.23,1.15.35-.26.23-.62.41-.48.86-.3-.16-.59-.32-.9-.47-.1-.05-.2-.08-.31-.1-.31-.06-.66-.04-.93-.17-.84-.39-1.71-.46-2.62-.34ZM13.59,23.47s.08-.02.09-.05c0-.02-.02-.06-.02-.09-.04.02-.08.04-.11.06.02.03.03.05.05.08Z"/><path class="cls-15" d="M9.94,21.51c-.14.19-.28.38-.42.57-.23.04-.65-.34-.6.28-.05,0-.12,0-.16-.03-.09-.08-.17-.18-.25-.27,0,0-.02,0-.02,0,0-.04,0-.07,0-.11,0-.19-.02-.38-.03-.57.01-.11.02-.22.03-.33,0-.14,0-.28.01-.41.03-.04.06-.09.09-.13.04-.14.09-.29.13-.43.07-.08.15-.16.22-.24.38-.22.77-.44,1.15-.66-.02.04-.03.07-.05.11-.32.46-.44.94-.13,1.45,0,.19.02.37.03.56,0,.07-.01.14-.02.21Z"/><path class="cls-12" d="M8.52,22.06c.08.09.16.19.25.27.03.03.1.02.16.03-.05-.62.37-.25.6-.28-.02.09-.02.19-.08.25-.32.38-.44.74-.03,1.14.08.07.07.24.1.36-.3-.36-.6-.72-.9-1.09,0-.04,0-.09,0-.13-.03-.19-.06-.37-.09-.56Z"/><path class="cls-1" d="M6.49,22.5c.28-.1.56-.21.85-.31,0,0,.02.05.03.07-.29.08-.58.17-.87.25,0,0-.01-.01-.01-.01Z"/><path class="cls-1" d="M8.49,21.96s.01.07,0,.11c-.02,0-.04,0-.06,0-.23.02-.46.05-.7.07.25-.06.5-.12.75-.18Z"/><path class="cls-1" d="M8.71,24.27s.07-.1.11-.15c.02.02.04.04.06.06-.05.04-.1.07-.15.11l-.02-.02Z"/><path class="cls-1" d="M6.27,22.61c.07-.04.15-.08.22-.11,0,0,.01.01.01.01-.07.04-.15.07-.22.11,0,0-.01-.01-.01-.01Z"/><path class="cls-1" d="M8.51,22.74s-.08.05-.13.07c0,0-.02-.02-.03-.04.05-.02.09-.03.14-.05,0,0,.02.02.02.02Z"/><path class="cls-1" d="M7.62,23.18c-.08.04-.15.07-.23.11,0,0-.01-.01-.01-.01.07-.04.15-.08.22-.12l.02.02Z"/><path class="cls-1" d="M7.28,25.84s-.01.07-.02.11c-.02-.01-.04-.02-.05-.03.02-.03.05-.05.07-.08h0Z"/><path class="cls-1" d="M7.28,23.4c-.07.04-.15.08-.22.11,0,0-.01-.01-.01-.01.07-.04.15-.08.22-.11h.01Z"/><polygon class="cls-1" points="6.44 23.98 6.43 23.93 6.47 23.94 6.44 23.98"/><path class="cls-5" d="M6.39,24.84s.01-.07.02-.1l.05.02s-.05.05-.07.07c0,0,0,0,0,0Z"/><path class="cls-1" d="M8.12,24.87s-.03,0-.04-.01c0-.01,0-.03.02-.04,0,0,.02,0,.04.01,0,.01-.01.03-.02.04Z"/><path class="cls-1" d="M6.94,23.61s.07-.07.11-.11c0,0,.01.01.01.01-.04.04-.07.07-.11.11h-.01Z"/><path class="cls-1" d="M7.72,25.28s.02-.03.03-.04c0,.02-.01.04-.02.05,0,0,0,0,0,0Z"/><path class="cls-1" d="M7.61,25.39s.07-.08.11-.11c0,0,0,0,0,0-.04.04-.07.07-.11.11h0Z"/><path class="cls-1" d="M6.95,23.62s-.02.03-.03.04c0-.02.01-.03.02-.05,0,0,.01.01.01.01Z"/><path class="cls-1" d="M7.61,25.4s-.02.03-.03.04c0-.02.01-.03.02-.05,0,0,0,0,0,0Z"/><path class="cls-1" d="M7.38,25.72s.02-.03.03-.04c0,.02-.01.03-.02.05,0,0,0,0,0,0Z"/><path class="cls-1" d="M7.28,25.84s.07-.07.11-.11c0,0,0,0,0,0-.04.04-.07.07-.11.11,0,0,0,0,0,0Z"/><path class="cls-5" d="M7.17,24.06s.01-.03.02-.05c0,.01-.02.03-.02.04,0,0,0,0,0,0Z"/><path class="cls-5" d="M7.17,24.06s-.02.03-.02.04c0-.01.02-.03.03-.04,0,0,0,0,0,0Z"/><path class="cls-1" d="M8.6,22.61s0,.09,0,.13c-.03,0-.07-.01-.1,0,0,0-.02-.02-.02-.02.04-.04.08-.07.12-.11Z"/><path class="cls-1" d="M8.73,24.29s-.02.03-.03.04c0,0-.02-.02-.02-.02.01-.01.03-.02.04-.03,0,0,.02.02.02.02Z"/><path class="cls-1" d="M7.6,23.16s.02-.03.03-.04c0,.02-.01.04-.02.06,0,0-.02-.02-.02-.02Z"/><path class="cls-1" d="M7.27,23.39s.07-.07.11-.11c0,0,.01.01.01.01-.04.04-.07.07-.11.11,0,0-.01-.01-.01-.01Z"/><path class="cls-12" d="M7.29,19.16c0-.31-.06-.65.05-.91.17-.39-.07-.82.37-1.23.44-.41.57-1.15.86-1.73.1-.2.27-.38.42-.55.16-.19.47-.38.47-.56,0-.5.31-.66.66-.83.17-.08.36-.13.55-.19.02.27.07.54.07.81-.02.8-.52,1.52-.28,2.38.15.56.16,1.19.09,1.77-.03.25-.39.51-.65.68-.28.19-.65.25-.95.42-.18.11-.3.32-.45.48-.03,0-.06.02-.09.04,0,0,0,0,0,0-.03-.04-.06-.09-.09-.13-.12-.06-.23-.13-.35-.19h-.24s-.05,0-.05,0c-.09-.03-.17-.07-.26-.1,0,0,0,0,0,0-.03-.04-.07-.08-.1-.13Z"/><path class="cls-14" d="M11.76,14.22c.09.38.13.79.3,1.13.32.68.92.67,1.55.48-.04.08-.08.15-.11.23-.54.04-.96.25-1.2.79-.16.35-.43.68-.9.5-.47-.18-.76-.46-.6-1.05.12-.44.1-.92.16-1.38,0-.06.08-.12.12-.18.51.45.38-.05.45-.29.03-.09.17-.16.26-.23Z"/><path class="cls-9" d="M10.05,19.29s.03-.07.05-.11c0,0,.05,0,.05,0,0,0,.01-.04.01-.04.06-.06.12-.12.18-.17.24-.13.49-.27.73-.4.99-.12,1.96-.18,2.87.34-.26.37-.57.75-1.07.56-.93-.34-1.88-.17-2.82-.17Z"/><path class="cls-6" d="M8.39,19.73s.06-.03.09-.04c.15.05.31.1.47.15-.07.08-.15.16-.22.24-.11-.12-.22-.23-.33-.35Z"/><path class="cls-1" d="M8.17,20.06c.11.04.23.07.34.11,0,0,0,.06-.01.09-.11-.06-.23-.12-.34-.18,0,0,.02-.02.02-.02Z"/><path class="cls-1" d="M7.84,19.95c.11.04.22.07.33.11,0,0-.02.02-.02.02-.11-.04-.22-.08-.33-.12v-.02Z"/><path class="cls-1" d="M7.6,19.85c-.11-.04-.22-.07-.34-.11,0,0,.01-.02.01-.02.11.04.23.07.34.11,0,0-.01.02-.01.02Z"/><path class="cls-1" d="M7.27,19.74c-.11-.04-.22-.08-.33-.11,0,0,.01-.01.01-.01.11.04.22.07.33.11,0,0-.01.02-.01.02Z"/><path class="cls-6" d="M8.16,19.64c-.08-.04-.15-.07-.23-.11,0,0,.03-.03.03-.03.07.04.15.07.22.11l-.02.03Z"/><path class="cls-6" d="M8.29,19.59s.06.09.09.13c-.08-.03-.15-.06-.23-.09,0,0,.02-.03.02-.03.04,0,.08,0,.12-.01Z"/><path class="cls-1" d="M7.82,19.96c-.07-.04-.15-.07-.22-.11,0,0,.01-.02.01-.02.07.04.15.07.22.11,0,0-.01.02-.01.02Z"/><path class="cls-6" d="M7.29,19.16s.07.08.1.13c-.03-.04-.07-.08-.1-.13Z"/><path class="cls-6" d="M7.39,19.29c.09.03.17.07.26.1-.08-.03-.17-.07-.26-.1Z"/><path class="cls-6" d="M7.7,19.4c.08,0,.16,0,.24,0,0,.03,0,.07.01.1,0,0-.03.03-.03.03-.08-.04-.15-.08-.23-.13Z"/><path class="cls-15" d="M10.34,18.96c-.06.06-.12.12-.18.17.06-.06.12-.12.18-.17Z"/><path class="cls-2" d="M15.27,25.8c-.14-.45.22-.63.48-.86.06-.11.12-.21.18-.32.21.01.5.12.61.03.29-.25.87.14.97-.46.07,0,.13,0,.2-.01.31-.24.59-.06.87.05.34.13.67.26,1.01.39.02,0,.03.01.05.02-.01,0-.03-.02-.04-.03,0-.11.04-.27-.02-.31-.17-.13-.39-.21-.58-.32-.1-.06-.19-.15-.28-.22.13,0,.26-.05.38-.02.43.1.85.22,1.27.33-.21.26-.34.51,0,.77-.03,0-.07.02-.1.02.01.02.02.03.03.05.03-.02.05-.05.08-.07.07.04.15.07.22.11h0s-.04.03-.04.04c0,.03.03.05.04.08h0c0,.14,0,.28.01.42-.22-.03-.45-.06-.67-.1-.02,0-.03-.01-.05-.02.01,0,.03.02.04.03-.22.22-.44.44-.66.65-.07,0-.15,0-.22,0-.14-.11-.29-.23-.43-.34-.04-.07-.08-.15-.11-.22-.04-.05-.08-.11-.11-.16l-.06.06c.05.04.1.08.15.12.04.07.08.14.11.22,0,.1,0,.2,0,.3-.18,0-.37.02-.55.02-.5-.23-.8.13-1.12.4-.55-.22-1.1-.44-1.65-.66ZM18.82,24.73s.05.05.08.07c0-.02.02-.03.03-.05-.04,0-.07-.01-.11-.02-.03-.05-.07-.09-.1-.14l-.04.04s.09.07.14.1ZM18.05,24.94s-.04,0-.06-.01c.01.01.02.02.04.04.04.05.08.1.12.16.02-.02.04-.04.06-.06-.05-.04-.1-.08-.15-.12ZM17.94,24.58c-.07-.06-.11-.14-.16-.14-.04,0-.09.07-.14.11.05.05.1.1.15.13.02.01.07-.05.15-.1ZM19.54,25.04s-.06-.03-.08-.03c0,0-.03.03-.03.04.01.03.04.05.06.07.02-.02.04-.05.06-.07ZM17.11,25.41s-.01-.03-.02-.05c-.03.01-.06.03-.08.04,0,0,0,.03.01.04.03-.01.05-.03.08-.04Z"/><path class="cls-5" d="M19.59,24.62c-.34-.13-.67-.26-1.01-.39-.28-.11-.56-.3-.87-.05,0-.11-.02-.21-.03-.32.13-.14.25-.29.38-.43.14-.01.29-.02.43-.04.63.15,1.26.29,1.89.44.15.03.3.06.46.09.12.04.23.09.35.13-.26.48-.55-.09-.82.02-.42-.11-.84-.23-1.27-.33-.12-.03-.25.01-.38.02.09.08.18.16.28.22.19.11.4.19.58.32.05.04.01.2.02.31h0Z"/><path class="cls-3" d="M22.4,24.35c.28.12.53.23.78.34-.14.12-.36.37-.41.34-.2-.12-.35-.33-.51-.51,0,0,.08-.1.14-.17Z"/><path class="cls-2" d="M20.6,24.95s.09.04.13.06c-.04.02-.09.04-.13.05,0,0,0,0,0,0,0-.04,0-.07,0-.11h0Z"/><path class="cls-2" d="M28.69,28.06s.05.05.07.07c-.02,0-.03.02-.05.03,0-.03-.01-.07-.02-.1,0,0,0,0,0,0Z"/><path class="cls-8" d="M31.69,31.94s-.04.05-.07.08c-.01-.02-.02-.03-.03-.05.03,0,.07-.01.1-.02,0,0,0,0,0,0Z"/><path class="cls-8" d="M31.91,32.93s-.01.03-.02.04c0-.01.02-.02.02-.04,0,0,0,0,0,0Z"/><path class="cls-14" d="M14.15,35.82c.07.04.15.07.22.11h0c-.07-.04-.15-.08-.22-.11,0,0,0,0,0,0Z"/><path class="cls-14" d="M14.38,35.94s.03.01.04.02c-.01,0-.02-.02-.03-.03,0,0,0,0,0,0Z"/><path class="cls-14" d="M18.93,37.6s.01-.03.02-.04c0,.01-.01.03-.02.04,0,0,0,0,0,0Z"/><path class="cls-8" d="M35.01,29.72s0-.08,0-.11c.04.02.09.04.13.06-.04.02-.09.04-.13.06Z"/><path class="cls-10" d="M19.04,26.06c.07,0,.15,0,.22,0,.39-.09.77-.2,1.16-.26.15-.02.32.05.49.09-.12.09-.24.2-.37.26-1.17.59-2.47.62-3.71.91-.15-.12-.28-.29-.45-.34-1.31-.38-2.63-.72-3.94-1.11-.66-.2-1.29-.5-1.93-.76,0-.04,0-.08,0-.12.9-.12,1.77-.05,2.62.34.28.13.62.11.93.17.11.02.21.05.31.1.3.15.6.31.9.47.55.22,1.1.44,1.65.66.37-.13.75-.27,1.12-.4.18,0,.37-.02.55-.02.15,0,.3.01.45.02Z"/><path class="cls-9" d="M10.51,24.84c.64.26,1.27.56,1.93.76,1.31.4,2.63.73,3.94,1.11.17.05.3.22.45.34-.18.1-.36.29-.54.29-.45-.01-.9-.11-1.35-.17-.46-.07-.96-.29-1.37-.18-.74.21-1.23-.31-1.84-.45-.36-.09-.69-.33-1-.54-.44-.3-.46-.71-.22-1.15Z"/><path class="cls-1" d="M20.04,19.85c.19-.04.37-.07.56-.11.01.36.03.73.04,1.09.07.23.15.46.22.69-.12.18-.24.35-.36.53-.12.3-.23.6-.35.91-.19-.3-.37-.59-.56-.89-.08-.22-.15-.45-.23-.67-.07-.16-.66-.02-.25-.47.06-.06-.12-.34-.19-.52.15-.11.3-.23.45-.34,0,0,0,0,0,0,.11-.04.22-.07.33-.11,0,0,0,0,0,0,.11-.04.22-.07.33-.11h0Z"/><path class="cls-6" d="M20.15,22.95c.12-.3.23-.6.35-.91.79.04,1.58.09,2.37.14.08,0,.16.04.24.06-.07.01-.14.04-.21.04-.39-.01-.77-.03-1.16-.04-.11,0-.22.04-.33.07.08.1.14.24.24.29.51.25,1.03.47,1.55.71.06.03.1.11.15.17-.38.02-.76.09-1.13.04-.27-.03-.53-.21-.8-.32-.09-.04-.21-.02-.31-.04-.18-.05-.36-.11-.53-.17.05.2.1.4.16.6.03.11.07.21.11.31-.15-.03-.3-.06-.46-.09-.08-.29-.15-.58-.23-.87Z"/><path class="cls-3" d="M20.86,21.52c-.07-.23-.15-.46-.22-.69.75-.07,1.49-.14,2.24-.2.08,0,.16.04.23.06-.07.02-.14.04-.21.05-.6.08-1.2.14-1.8.23-.09.01-.17.1-.26.15.08.09.13.22.23.26.18.07.39.1.59.13.18.03.37.05.55.08-.2.01-.4.05-.6.03-.25-.01-.51-.06-.76-.1Z"/><path class="cls-3" d="M29.81,17.3c-.29.18-.58.37-.89.52-.06.03-.24-.08-.29-.17-.03-.06.08-.26.15-.27.33-.05.68-.06,1.01-.08h.01Z"/><path class="cls-7" d="M33.49,16.73s.03.04.04.06c-.03.01-.05.03-.08.04,0,0-.03-.03-.03-.04.02-.02.04-.04.07-.06Z"/><path class="cls-7" d="M25.03,18.95s.08,0,.12,0c-.04,0-.08,0-.12,0Z"/><path class="cls-3" d="M29.79,17.29s.02-.02.03-.04c0,.02-.01.03-.02.05,0,0-.01-.01-.01-.01Z"/><path class="cls-10" d="M10.05,19.29c.94,0,1.89-.17,2.82.17.5.18.81-.2,1.07-.56.52.32,1.04.63,1.56.95.01.04.03.07.04.11l-.85,1.95c-.58.38-1.16.74-1.73,1.13-.86.6-1.58.53-2.25-.31-.3-.38-.52-.82-.77-1.23,0-.07.01-.14.02-.21.2.02.4.04.6.04.1,0,.2-.06.3-.09-.08-.06-.15-.14-.24-.18-.23-.12-.46-.22-.69-.33-.31-.52-.19-.99.13-1.45ZM12.82,21.51s-.02-.02-.03-.02c.01,0,.02.01.03.02.21.13.41.29.64.39.1.05.26-.02.39-.04-.09-.07-.18-.18-.28-.21-.24-.07-.5-.1-.75-.14Z"/><path class="cls-15" d="M15.54,19.96s-.03-.07-.04-.11c.21,0,.43-.02.64-.03.42.33.82.71,1.28.99.47.29.24.46-.05.64-.11.07-.25.09-.35.16-.07.05-.1.15-.15.23.08.02.16.06.24.05.35-.02.69-.05,1.04-.08.11.08.23.16.34.24,0,.07,0,.15.01.22,0,.33-.01.67-.02,1-.15,0-.3,0-.44,0-.19-.03-.37-.07-.56-.1-.27-.08-.53-.18-.8-.21-.18-.02-.37.06-.55.09.16.06.32.13.49.18.21.06.42.1.62.15.02.11.04.22.05.33-.19-.03-.38-.07-.57-.09-.06,0-.13.02-.17.05-.03.02-.05.13-.05.13.24.1.49.19.74.29.04-.12.09-.24.13-.36.08.04.15.07.23.11-.03.11-.06.22-.09.34-.1.6-.68.21-.97.46-.11.1-.4-.01-.61-.03-.49-.36-.48-.92-.55-1.45.05-.03.1-.06.15-.09-.05-.04-.1-.09-.15-.13.41-.77.7-1.57.51-2.45-.04-.2-.22-.36-.34-.54Z"/><path class="cls-3" d="M18.15,21.83c-.35.03-.69.06-1.04.08-.08,0-.16-.03-.24-.05.05-.08.08-.18.15-.23.1-.07.24-.09.35-.16.29-.19.52-.35.05-.64-.46-.28-.85-.66-1.28-.99.29-.42,1.04-.49,1.46-.15.25.19.53.33.8.5-.08.15-.16.3-.25.45,0,0-.02.02-.02.03,0-.01.01-.02.02-.03.26-.07.52-.14.77-.21.07.18.25.45.19.52-.41.45.19.31.25.47-.4.03-.79.05-1.19.09-.54.06-.13.22-.03.34Z"/><path class="cls-5" d="M18.15,20.62c.08-.15.16-.3.25-.45.32-.03.65-.07.97-.1-.15.11-.3.23-.45.34-.26.07-.52.14-.77.21,0,0,0,0,0,0Z"/><path class="cls-7" d="M14.48,14.96c.1-.12.19-.24.29-.35-.09.16-.18.31-.27.47,0,0-.04.03-.04.03,0,0-.04-.03-.04-.03.02-.04.04-.08.06-.12Z"/><path class="cls-5" d="M20.04,19.84c-.11.04-.22.07-.33.11.11-.04.22-.07.33-.11Z"/><path class="cls-5" d="M19.7,19.96c-.11.04-.22.07-.33.11.11-.04.22-.07.33-.11Z"/><path class="cls-7" d="M14.36,15.29s-.02-.08-.03-.12c.04-.01.08-.02.13-.04-.03.05-.06.1-.09.15Z"/><path class="cls-7" d="M23.71,14.12c-.4.1-.81.21-1.21.31.2-.5.65-.62,1.21-.31Z"/><path class="cls-3" d="M23.08,17.29c-.24.04-.47.08-.71.12-.22-.39-.56-.77-.62-1.18-.07-.47.69-1.32,1.09-1.33.22,0,.45.22.67.34.02,0,.01.06.01.1-.04-.01-.1-.05-.13-.04-.21.1-.52.17-.59.34-.27.59-.13,1.15.27,1.65Z"/><path class="cls-3" d="M13.3,15.41c-.81.03-1.25-.46-1.14-1.29.03-.2.08-.39.12-.59.64-.32.41.08.46.45.07.49.36.95.56,1.43Z"/><path class="cls-9" d="M14.48,14.96s-.04.08-.06.12c.02-.04.04-.08.06-.12Z"/><path class="cls-5" d="M15.37,23.17c.08.52.06,1.08.55,1.45-.06.11-.12.21-.18.32-.38-.11-.78-.2-1.15-.35-.12-.05-.2-.23-.28-.37-.06-.12-.1-.26-.13-.39-.06-.21-.13-.41-.15-.62,0-.04.22-.12.34-.14.29-.05.58-.08.87-.12,0,0,.02.01.02.01.04.07.07.15.11.22h0ZM15.14,24.3s.04.09.06.13c.01-.01.04-.03.04-.03-.02-.04-.05-.08-.07-.13l-.06-.13s-.04.03-.04.03c.02.04.04.09.07.13Z"/><path class="cls-5" d="M15.54,19.96c.12.18.3.35.34.54.19.88-.1,1.68-.51,2.45h0s-.07,0-.11,0c0,0-.02-.01-.02-.01-.33-.11-.65-.21-.43-.68.04-.08-.08-.23-.13-.35.28-.65.57-1.3.85-1.95Z"/><path class="cls-9" d="M13.59,23.47s-.04-.05-.05-.08c.04-.02.08-.04.11-.06,0,.03.03.07.02.09-.01.02-.05.03-.09.05Z"/><path class="cls-4" d="M9.93,20.74c.23.11.47.21.69.33.09.04.16.12.24.18-.1.03-.2.09-.3.09-.2,0-.4-.03-.6-.04,0-.19-.02-.37-.03-.56Z"/><path class="cls-3" d="M7.96,19.5s-.01-.06-.01-.1c.12.06.23.13.35.19-.04,0-.08,0-.12.01-.07-.04-.15-.07-.22-.11Z"/><path class="cls-5" d="M18.04,26.06c-.37.13-.75.27-1.12.4.33-.27.62-.63,1.12-.4Z"/><path class="cls-5" d="M19.04,26.06c-.15,0-.3-.01-.45-.02,0-.1,0-.2,0-.3,0,0,.02-.02.02-.02.14.11.29.23.43.34Z"/><path class="cls-5" d="M17.94,24.58c-.07.05-.12.11-.15.1-.06-.03-.1-.09-.15-.13.05-.04.1-.12.14-.11.05,0,.09.08.16.14Z"/><path class="cls-5" d="M18.05,24.93c.05.04.1.08.15.12l-.06.06c-.04-.05-.08-.1-.12-.16l.03-.03Z"/><path class="cls-12" d="M17.51,24.19c.03-.11.06-.22.09-.34.03,0,.05,0,.08,0,0,.11.02.21.03.32-.07,0-.13,0-.2.01Z"/><path class="cls-5" d="M18.47,25.52c-.05-.04-.1-.08-.15-.12l.06-.06c.04.05.08.11.11.16,0,0-.03.02-.03.02Z"/><path class="cls-5" d="M19.54,25.04s-.04.05-.06.07c-.02-.02-.04-.04-.06-.07,0,0,.02-.04.03-.04.03,0,.06.02.09.03Z"/><path class="cls-5" d="M18.82,24.73s-.09-.07-.14-.1l.04-.04s.07.09.1.14h0Z"/><path class="cls-5" d="M17.11,25.41s-.05.03-.08.04c0-.02-.02-.04-.01-.04.02-.02.05-.03.08-.04,0,.02.01.03.02.05Z"/><path class="cls-5" d="M18.49,25.5c.04.07.08.15.11.22,0,0-.02.02-.02.02-.04-.07-.08-.14-.11-.22,0,0,.02-.02.02-.02Z"/><path class="cls-5" d="M18.82,24.73s.07.01.11.02c0,.02-.02.03-.03.05-.03-.02-.05-.05-.08-.07,0,0,0,0,0,0Z"/><path class="cls-6" d="M20.37,24.84s-.05.05-.08.07c-.01-.02-.02-.03-.03-.05.03,0,.07-.02.1-.02,0,0,0,0,0,0Z"/><path class="cls-6" d="M20.59,24.95s0,.07,0,.11c-.01-.02-.03-.05-.04-.08,0,0,.02-.02.04-.03Z"/><path class="cls-5" d="M19.92,25.4s-.03-.02-.04-.03c.02,0,.03.01.05.02,0,0-.01.01-.01.01Z"/><path class="cls-5" d="M19.6,24.61s.03.02.04.03c-.02,0-.03-.01-.05-.02,0,0,0,0,0,0Z"/><path class="cls-5" d="M18.03,24.96s-.02-.02-.04-.04c.02,0,.04,0,.06.01,0,0-.03.03-.03.03Z"/><path class="cls-2" d="M18.48,23.29c0-.33.01-.67.02-1,.33-.04.66-.07.98-.11.04-.04.07-.07.11-.11.19.3.37.59.56.89.08.29.15.58.23.87-.63-.15-1.26-.29-1.89-.44,0-.03,0-.06,0-.09Z"/><path class="cls-6" d="M17.68,23.86s-.05,0-.08,0c-.08-.04-.15-.07-.23-.11-.02-.01-.05-.02-.07-.02-.02-.11-.04-.22-.05-.33.08-.07.16-.14.24-.21.19.03.37.07.56.1,0,0,0,0,0,0-.11.02-.21.05-.32.07.1.01.21.03.31.04,0,0,.03.03.03.03-.13.14-.25.29-.38.43Z"/><path class="cls-6" d="M18.48,23.29s0,.06,0,.09c-.14.01-.29.02-.43.04,0,0-.03-.03-.03-.03,0-.04,0-.07,0-.11,0,0,0,0,0,0,.15,0,.3,0,.44,0Z"/><path class="cls-6" d="M19.59,22.06s-.07.07-.11.11c-.33-.04-.66-.07-1-.11-.11-.08-.23-.16-.34-.24-.1-.13-.51-.29.03-.34.39-.04.79-.06,1.19-.09.08.22.15.45.23.67Z"/><path class="cls-9" d="M12.82,21.51c.25.04.51.07.75.14.11.03.19.14.28.21-.13.02-.28.08-.39.04-.23-.1-.43-.26-.64-.39h0Z"/><path class="cls-9" d="M12.83,21.51s-.02-.01-.03-.02c0,0,.02.02.03.02,0,0,0,0,0,0Z"/><path class="cls-12" d="M17.48,23.19c-.08.07-.16.14-.24.21-.21-.05-.42-.09-.62-.15-.17-.05-.33-.12-.49-.18.19-.03.38-.11.55-.09.27.03.53.14.8.21Z"/><path class="cls-12" d="M17.3,23.72s.05,0,.07.02c-.04.12-.09.24-.13.36-.25-.09-.49-.19-.74-.29,0,0,.02-.1.05-.13.05-.03.12-.06.17-.05.19.02.38.06.57.09Z"/><path class="cls-1" d="M18.49,22.06c.33.04.66.07,1,.11-.33.04-.66.07-.98.11,0-.07,0-.15-.01-.22Z"/><path class="cls-5" d="M15.37,22.95c.05.04.1.09.15.13-.05.03-.1.06-.15.09,0,0,0,0,0,0,0-.08,0-.15,0-.23h0Z"/><path class="cls-5" d="M18.15,20.62s-.01.02-.02.03c0,0,.02-.02.02-.03,0,0,0,0,0,0Z"/><path class="cls-15" d="M15.38,22.95c0,.08,0,.15,0,.23-.04-.07-.07-.15-.11-.22.04,0,.07,0,.11,0Z"/><path class="cls-4" d="M15.14,24.3s-.05-.09-.07-.13c0,0,.02-.02.04-.03l.06.13-.03.03Z"/><path class="cls-4" d="M15.17,24.27s.05.08.07.13c0,0-.02.02-.04.03-.02-.04-.04-.09-.06-.13,0,0,.03-.03.03-.03Z"/><path class="cls-15" d="M18.04,23.28s0,.07,0,.11c-.1-.01-.21-.03-.31-.04.11-.02.21-.05.32-.07Z"/></svg>